<?xml version="1.0" encoding="UTF-8" standalone="no"?><svg xmlns="http://www.w3.org/2000/svg" xmlns:xlink="http://www.w3.org/1999/xlink" contentStyleType="text/css" height="641px" preserveAspectRatio="none" style="width:969px;height:641px;background:#FFFFFF;" version="1.1" viewBox="0 0 969 641" width="969px" zoomAndPan="magnify"><defs/><g><rect height="26.4883" style="stroke:#00000000;stroke-width:1.0;fill:none;" width="173" x="391" y="5"/><text fill="#000000" font-family="sans-serif" font-size="14" font-weight="bold" lengthAdjust="spacing" textLength="163" x="396" y="23.5352">DataExtractor(クラス図)</text><!--MD5=[871205cb631ec30aa8c52dfb4d844a93]
cluster DataExtractor--><g id="cluster_DataExtractor"><path d="M8.5,43.4883 L106.5,43.4883 A3.75,3.75 0 0 1 109,45.9883 L116,65.9766 L959.5,65.9766 A2.5,2.5 0 0 1 962,68.4766 L962,631.9883 A2.5,2.5 0 0 1 959.5,634.4883 L8.5,634.4883 A2.5,2.5 0 0 1 6,631.9883 L6,45.9883 A2.5,2.5 0 0 1 8.5,43.4883 " style="stroke:#000000;stroke-width:1.5;fill:none;"/><line style="stroke:#000000;stroke-width:1.5;fill:none;" x1="6" x2="116" y1="65.9766" y2="65.9766"/><text fill="#000000" font-family="sans-serif" font-size="14" font-weight="bold" lengthAdjust="spacing" textLength="97" x="10" y="59.0234">DataExtractor</text></g><!--MD5=[702f5ecae91e7ab5cbe7cfad195cbb2a]
class DataExtractor.DataExtractor--><g id="elem_DataExtractor.DataExtractor"><rect codeLine="3" fill="#F1F1F1" height="146.9297" id="DataExtractor.DataExtractor" rx="2.5" ry="2.5" style="stroke:#181818;stroke-width:0.5;" width="262" x="292" y="163.4883"/><ellipse cx="371.75" cy="179.4883" fill="#ADD1B2" rx="11" ry="11" style="stroke:#181818;stroke-width:1.0;"/><path d="M374.2231,185.6313 Q373.6421,185.9302 373.0029,186.0796 Q372.3638,186.229 371.6582,186.229 Q369.1514,186.229 367.8315,184.5771 Q366.5117,182.9253 366.5117,179.8042 Q366.5117,176.6748 367.8315,175.0229 Q369.1514,173.3711 371.6582,173.3711 Q372.3638,173.3711 373.0112,173.5205 Q373.6587,173.6699 374.2231,173.9688 L374.2231,176.6914 Q373.5923,176.1104 372.9988,175.8406 Q372.4053,175.5708 371.7744,175.5708 Q370.4297,175.5708 369.7449,176.6375 Q369.0601,177.7041 369.0601,179.8042 Q369.0601,181.896 369.7449,182.9626 Q370.4297,184.0293 371.7744,184.0293 Q372.4053,184.0293 372.9988,183.7595 Q373.5923,183.4897 374.2231,182.9087 Z " fill="#000000"/><text fill="#000000" font-family="sans-serif" font-size="14" lengthAdjust="spacing" textLength="94" x="392.25" y="184.7793">DataExtractor</text><line style="stroke:#181818;stroke-width:0.5;" x1="293" x2="553" y1="195.4883" y2="195.4883"/><rect fill="none" height="6" style="stroke:#C82930;stroke-width:1.0;" width="6" x="300" y="203.4883"/><text fill="#000000" font-family="sans-serif" font-size="14" lengthAdjust="spacing" textLength="138" x="312" y="213.0234">const OutFile: string</text><rect fill="none" height="6" style="stroke:#C82930;stroke-width:1.0;" width="6" x="300" y="219.9766"/><text fill="#000000" font-family="sans-serif" font-size="14" lengthAdjust="spacing" textLength="149" x="312" y="229.5117">const GaiaPath: string</text><rect fill="none" height="6" style="stroke:#C82930;stroke-width:1.0;" width="6" x="300" y="236.4648"/><text fill="#000000" font-family="sans-serif" font-size="14" lengthAdjust="spacing" textLength="142" x="312" y="246">const HipPath: string</text><rect fill="none" height="6" style="stroke:#C82930;stroke-width:1.0;" width="6" x="300" y="252.9531"/><text fill="#000000" font-family="sans-serif" font-size="14" lengthAdjust="spacing" textLength="199" x="312" y="262.4883">const CrossMatchPath: string</text><line style="stroke:#181818;stroke-width:0.5;" x1="293" x2="553" y1="269.4414" y2="269.4414"/><text fill="#000000" font-family="sans-serif" font-size="14" lengthAdjust="spacing" textLength="80" x="298" y="286.9766">Main(): void</text><text fill="#000000" font-family="sans-serif" font-size="14" lengthAdjust="spacing" textLength="250" x="298" y="303.4648">GetGaiaFiles(): IEnumerable&lt;string&gt;</text></g><!--MD5=[2f333648af7417f8e2cc8b5aa8b0c5c4]
class DataExtractor.StarData--><g id="elem_DataExtractor.StarData"><rect codeLine="12" fill="#F1F1F1" height="146.9297" id="DataExtractor.StarData" rx="2.5" ry="2.5" style="stroke:#181818;stroke-width:0.5;" width="565" x="140.5" y="370.4883"/><ellipse cx="389.75" cy="386.4883" fill="#ADD1B2" rx="11" ry="11" style="stroke:#181818;stroke-width:1.0;"/><path d="M392.2231,392.6313 Q391.6421,392.9302 391.0029,393.0796 Q390.3638,393.229 389.6582,393.229 Q387.1514,393.229 385.8315,391.5771 Q384.5117,389.9253 384.5117,386.8042 Q384.5117,383.6748 385.8315,382.0229 Q387.1514,380.3711 389.6582,380.3711 Q390.3638,380.3711 391.0112,380.5205 Q391.6587,380.6699 392.2231,380.9688 L392.2231,383.6914 Q391.5923,383.1104 390.9988,382.8406 Q390.4053,382.5708 389.7744,382.5708 Q388.4297,382.5708 387.7449,383.6375 Q387.0601,384.7041 387.0601,386.8042 Q387.0601,388.896 387.7449,389.9626 Q388.4297,391.0293 389.7744,391.0293 Q390.4053,391.0293 390.9988,390.7595 Q391.5923,390.4897 392.2231,389.9087 Z " fill="#000000"/><text fill="#000000" font-family="sans-serif" font-size="14" lengthAdjust="spacing" textLength="58" x="410.25" y="391.7793">StarData</text><line style="stroke:#181818;stroke-width:0.5;" x1="141.5" x2="704.5" y1="402.4883" y2="402.4883"/><rect fill="none" height="6" style="stroke:#C82930;stroke-width:1.0;" width="6" x="148.5" y="410.4883"/><text fill="#000000" font-family="sans-serif" font-size="14" lengthAdjust="spacing" textLength="141" x="160.5" y="420.0234">readonly _ra: double</text><rect fill="none" height="6" style="stroke:#C82930;stroke-width:1.0;" width="6" x="148.5" y="426.9766"/><text fill="#000000" font-family="sans-serif" font-size="14" lengthAdjust="spacing" textLength="151" x="160.5" y="436.5117">readonly _dec: double</text><rect fill="none" height="6" style="stroke:#C82930;stroke-width:1.0;" width="6" x="148.5" y="443.4648"/><text fill="#000000" font-family="sans-serif" font-size="14" lengthAdjust="spacing" textLength="146" x="160.5" y="453">readonly _vMag: float</text><rect fill="none" height="6" style="stroke:#C82930;stroke-width:1.0;" width="6" x="148.5" y="459.9531"/><text fill="#000000" font-family="sans-serif" font-size="14" lengthAdjust="spacing" textLength="164" x="160.5" y="469.4883">readonly _bvColor: float</text><line style="stroke:#181818;stroke-width:0.5;" x1="141.5" x2="704.5" y1="476.4414" y2="476.4414"/><text fill="#000000" font-family="sans-serif" font-size="14" lengthAdjust="spacing" textLength="553" x="146.5" y="493.9766">FromGaiaProperty(ra: double, dec: double , g: float , bp: float , rp: float): StarData</text><text fill="#000000" font-family="sans-serif" font-size="14" lengthAdjust="spacing" textLength="103" x="146.5" y="510.4648">ToByte(): byte[]</text></g><g id="elem_DataExtractor.GMN6"><path d="M286.5,78.4883 L286.5,103.7988 A0,0 0 0 0 286.5,103.7988 L419,103.7988 L423,163.1483 L427,103.7988 L559.5,103.7988 A0,0 0 0 0 559.5,103.7988 L559.5,88.4883 L549.5,78.4883 L286.5,78.4883 A0,0 0 0 0 286.5,78.4883 " fill="#FEFFDD" style="stroke:#181818;stroke-width:0.5;"/><path d="M549.5,78.4883 L549.5,88.4883 L559.5,88.4883 L549.5,78.4883 " fill="#FEFFDD" style="stroke:#181818;stroke-width:0.5;"/><text fill="#000000" font-family="sans-serif" font-size="13" lengthAdjust="spacing" textLength="252" x="292.5" y="96.0566">解凍/データの抽出/出力 をしているクラス</text></g><path d="M39.5,166.4883 L39.5,191.7988 A0,0 0 0 0 39.5,191.7988 L190.5,191.7988 A0,0 0 0 0 190.5,191.7988 L190.5,184.4883 L296,207.7324 L190.5,176.4883 L190.5,176.4883 L180.5,166.4883 L39.5,166.4883 A0,0 0 0 0 39.5,166.4883 " fill="#FEFFDD" style="stroke:#181818;stroke-width:0.5;"/><path d="M180.5,166.4883 L180.5,176.4883 L190.5,176.4883 L180.5,166.4883 " fill="#FEFFDD" style="stroke:#181818;stroke-width:0.5;"/><text fill="#000000" font-family="sans-serif" font-size="13" lengthAdjust="spacing" textLength="130" x="45.5" y="184.0566">データ出力先ファイル</text><path d="M39.5,201.7988 L39.5,227.1094 A0,0 0 0 0 39.5,227.1094 L191.5,227.1094 A0,0 0 0 0 191.5,227.1094 L191.5,219.7988 L296,224.2207 L191.5,211.7988 L191.5,211.7988 L181.5,201.7988 L39.5,201.7988 A0,0 0 0 0 39.5,201.7988 " fill="#FEFFDD" style="stroke:#181818;stroke-width:0.5;"/><path d="M181.5,201.7988 L181.5,211.7988 L191.5,211.7988 L181.5,201.7988 " fill="#FEFFDD" style="stroke:#181818;stroke-width:0.5;"/><text fill="#000000" font-family="sans-serif" font-size="13" lengthAdjust="spacing" textLength="131" x="45.5" y="219.3672">Gaiaデータの保存場所</text><path d="M39.5,237.1094 L39.5,262.4199 A0,0 0 0 0 39.5,262.4199 L215.5,262.4199 A0,0 0 0 0 215.5,262.4199 L215.5,255.1094 L296,240.709 L215.5,247.1094 L215.5,247.1094 L205.5,237.1094 L39.5,237.1094 A0,0 0 0 0 39.5,237.1094 " fill="#FEFFDD" style="stroke:#181818;stroke-width:0.5;"/><path d="M205.5,237.1094 L205.5,247.1094 L215.5,247.1094 L205.5,237.1094 " fill="#FEFFDD" style="stroke:#181818;stroke-width:0.5;"/><text fill="#000000" font-family="sans-serif" font-size="13" lengthAdjust="spacing" textLength="155" x="45.5" y="254.6777">Hipparcosデータファイル</text><path d="M39.5,272.4199 L39.5,297.7305 A0,0 0 0 0 39.5,297.7305 L256.5,297.7305 A0,0 0 0 0 256.5,297.7305 L256.5,290.4199 L296,257.1973 L256.5,282.4199 L256.5,282.4199 L246.5,272.4199 L39.5,272.4199 A0,0 0 0 0 39.5,272.4199 " fill="#FEFFDD" style="stroke:#181818;stroke-width:0.5;"/><path d="M246.5,272.4199 L246.5,282.4199 L256.5,282.4199 L246.5,272.4199 " fill="#FEFFDD" style="stroke:#181818;stroke-width:0.5;"/><text fill="#000000" font-family="sans-serif" font-size="13" lengthAdjust="spacing" textLength="196" x="45.5" y="289.9883">Gaia-HipのCrossMatchファイル</text><path d="M589.5,193.9883 L589.5,210.2988 L378,281.6855 L589.5,218.2988 L589.5,234.6094 A0,0 0 0 0 589.5,234.6094 L901.5,234.6094 A0,0 0 0 0 901.5,234.6094 L901.5,203.9883 L891.5,193.9883 L589.5,193.9883 A0,0 0 0 0 589.5,193.9883 " fill="#FEFFDD" style="stroke:#181818;stroke-width:0.5;"/><path d="M891.5,193.9883 L891.5,203.9883 L901.5,203.9883 L891.5,193.9883 " fill="#FEFFDD" style="stroke:#181818;stroke-width:0.5;"/><text fill="#000000" font-family="sans-serif" font-size="13" lengthAdjust="spacing" textLength="104" x="595.5" y="211.5566">大体の処理がここ</text><text fill="#000000" font-family="sans-serif" font-size="13" lengthAdjust="spacing" textLength="291" x="595.5" y="226.8672">Gaiaの処理、Hipの処理で大きく2回ループがある</text><path d="M589.5,244.6094 L589.5,253.2646 L548,298.1738 L589.5,261.2646 L589.5,269.9199 A0,0 0 0 0 589.5,269.9199 L904.5,269.9199 A0,0 0 0 0 904.5,269.9199 L904.5,254.6094 L894.5,244.6094 L589.5,244.6094 A0,0 0 0 0 589.5,244.6094 " fill="#FEFFDD" style="stroke:#181818;stroke-width:0.5;"/><path d="M894.5,244.6094 L894.5,254.6094 L904.5,254.6094 L894.5,244.6094 " fill="#FEFFDD" style="stroke:#181818;stroke-width:0.5;"/><text fill="#000000" font-family="sans-serif" font-size="13" lengthAdjust="spacing" textLength="294" x="595.5" y="262.1777">_MD5SUM.txtからGaiaデータのファイル名を取得</text><g id="elem_DataExtractor.GMN13"><path d="M277,577.4883 L277,618.1094 A0,0 0 0 0 277,618.1094 L569,618.1094 A0,0 0 0 0 569,618.1094 L569,587.4883 L559,577.4883 L427,577.4883 L423,517.8683 L419,577.4883 L277,577.4883 A0,0 0 0 0 277,577.4883 " fill="#FEFFDD" style="stroke:#181818;stroke-width:0.5;"/><path d="M559,577.4883 L559,587.4883 L569,587.4883 L559,577.4883 " fill="#FEFFDD" style="stroke:#181818;stroke-width:0.5;"/><text fill="#000000" font-family="sans-serif" font-size="13" lengthAdjust="spacing" textLength="182" x="283" y="595.0566">データの変換をしているクラス</text><text fill="#000000" font-family="sans-serif" font-size="13" lengthAdjust="spacing" textLength="271" x="283" y="610.3672">コンストラクタにra,dec,vMag,bvColorをとる</text></g><path d="M22.5,373.4883 L22.5,398.7988 A0,0 0 0 0 22.5,398.7988 L69.5,398.7988 A0,0 0 0 0 69.5,398.7988 L69.5,391.4883 L144.5,414.7324 L69.5,383.4883 L69.5,383.4883 L59.5,373.4883 L22.5,373.4883 A0,0 0 0 0 22.5,373.4883 " fill="#FEFFDD" style="stroke:#181818;stroke-width:0.5;"/><path d="M59.5,373.4883 L59.5,383.4883 L69.5,383.4883 L59.5,373.4883 " fill="#FEFFDD" style="stroke:#181818;stroke-width:0.5;"/><text fill="#000000" font-family="sans-serif" font-size="13" lengthAdjust="spacing" textLength="26" x="28.5" y="391.0566">赤経</text><path d="M22.5,408.7988 L22.5,434.1094 A0,0 0 0 0 22.5,434.1094 L69.5,434.1094 A0,0 0 0 0 69.5,434.1094 L69.5,426.7988 L144.5,431.2207 L69.5,418.7988 L69.5,418.7988 L59.5,408.7988 L22.5,408.7988 A0,0 0 0 0 22.5,408.7988 " fill="#FEFFDD" style="stroke:#181818;stroke-width:0.5;"/><path d="M59.5,408.7988 L59.5,418.7988 L69.5,418.7988 L59.5,408.7988 " fill="#FEFFDD" style="stroke:#181818;stroke-width:0.5;"/><text fill="#000000" font-family="sans-serif" font-size="13" lengthAdjust="spacing" textLength="26" x="28.5" y="426.3672">赤緯</text><path d="M22.5,444.1094 L22.5,469.4199 A0,0 0 0 0 22.5,469.4199 L69.5,469.4199 A0,0 0 0 0 69.5,469.4199 L69.5,462.1094 L144.5,447.709 L69.5,454.1094 L69.5,454.1094 L59.5,444.1094 L22.5,444.1094 A0,0 0 0 0 22.5,444.1094 " fill="#FEFFDD" style="stroke:#181818;stroke-width:0.5;"/><path d="M59.5,444.1094 L59.5,454.1094 L69.5,454.1094 L59.5,444.1094 " fill="#FEFFDD" style="stroke:#181818;stroke-width:0.5;"/><text fill="#000000" font-family="sans-serif" font-size="13" lengthAdjust="spacing" textLength="26" x="28.5" y="461.6777">等級</text><path d="M22.5,479.4199 L22.5,504.7305 A0,0 0 0 0 22.5,504.7305 L105.5,504.7305 A0,0 0 0 0 105.5,504.7305 L105.5,497.4199 L144.5,464.1973 L105.5,489.4199 L105.5,489.4199 L95.5,479.4199 L22.5,479.4199 A0,0 0 0 0 22.5,479.4199 " fill="#FEFFDD" style="stroke:#181818;stroke-width:0.5;"/><path d="M95.5,479.4199 L95.5,489.4199 L105.5,489.4199 L95.5,479.4199 " fill="#FEFFDD" style="stroke:#181818;stroke-width:0.5;"/><text fill="#000000" font-family="sans-serif" font-size="13" lengthAdjust="spacing" textLength="62" x="28.5" y="496.9883">B-V色指数</text><path d="M740.5,408.4883 L740.5,417.1436 L699.5,488.6855 L740.5,425.1436 L740.5,433.7988 A0,0 0 0 0 740.5,433.7988 L945.5,433.7988 A0,0 0 0 0 945.5,433.7988 L945.5,418.4883 L935.5,408.4883 L740.5,408.4883 A0,0 0 0 0 740.5,408.4883 " fill="#FEFFDD" style="stroke:#181818;stroke-width:0.5;"/><path d="M935.5,408.4883 L935.5,418.4883 L945.5,418.4883 L935.5,408.4883 " fill="#FEFFDD" style="stroke:#181818;stroke-width:0.5;"/><text fill="#000000" font-family="sans-serif" font-size="13" lengthAdjust="spacing" textLength="184" x="746.5" y="426.0566">GaiaデータからStarDataを作成</text><path d="M740.5,443.7988 L740.5,452.4541 L249.5,505.1738 L740.5,460.4541 L740.5,469.1094 A0,0 0 0 0 740.5,469.1094 L931.5,469.1094 A0,0 0 0 0 931.5,469.1094 L931.5,453.7988 L921.5,443.7988 L740.5,443.7988 A0,0 0 0 0 740.5,443.7988 " fill="#FEFFDD" style="stroke:#181818;stroke-width:0.5;"/><path d="M921.5,443.7988 L921.5,453.7988 L931.5,453.7988 L921.5,443.7988 " fill="#FEFFDD" style="stroke:#181818;stroke-width:0.5;"/><text fill="#000000" font-family="sans-serif" font-size="13" lengthAdjust="spacing" textLength="170" x="746.5" y="461.3672">StarDataをバイト配列に変換</text><!--MD5=[4e16f5b0c9329203fdacb26752ced91c]
link DataExtractor.DataExtractor to DataExtractor.StarData--><g id="link_DataExtractor.DataExtractor_DataExtractor.StarData"><path codeLine="22" d="M423,310.5483 C423,328.2383 423,347.2283 423,365.1483 " fill="none" id="DataExtractor.DataExtractor-to-DataExtractor.StarData" style="stroke:#181818;stroke-width:1.0;stroke-dasharray:7.0,7.0;"/><polygon fill="#181818" points="423,370.1783,427,361.1783,423,365.1783,419,361.1783,423,370.1783" style="stroke:#181818;stroke-width:1.0;"/><text fill="#000000" font-family="sans-serif" font-size="13" lengthAdjust="spacing" textLength="8" x="414.6188" y="330.8608">1</text><text fill="#000000" font-family="sans-serif" font-size="13" lengthAdjust="spacing" textLength="24" x="397.8188" y="359.7614">0..1</text></g><!--MD5=[74d625c9890f43c7aaf64813cdf4ecfd]
link DataExtractor.DataExtractor$$$LEFT to DataExtractor.DataExtractor--></g></svg>