<?xml version="1.0" encoding="UTF-8" standalone="no"?><svg xmlns="http://www.w3.org/2000/svg" xmlns:xlink="http://www.w3.org/1999/xlink" contentStyleType="text/css" height="1309px" preserveAspectRatio="none" style="width:456px;height:1309px;background:#FFFFFF;" version="1.1" viewBox="0 0 456 1309" width="456px" zoomAndPan="magnify"><defs/><g><rect height="26.4883" style="stroke:#00000000;stroke-width:1.0;fill:none;" width="229" x="112.25" y="15"/><text fill="#000000" font-family="sans-serif" font-size="14" font-weight="bold" lengthAdjust="spacing" textLength="219" x="117.25" y="33.5352">DataExtractor(アクティビティ図)</text><ellipse cx="161.5" cy="85.9844" fill="#222222" rx="10" ry="10" style="stroke:#222222;stroke-width:1.0;"/><rect fill="#F1F1F1" height="34.1328" rx="12.5" ry="12.5" style="stroke:#181818;stroke-width:0.5;" width="44" x="139.5" y="115.9844"/><text fill="#000000" font-family="sans-serif" font-size="12" lengthAdjust="spacing" textLength="24" x="149.5" y="137.5859">開始</text><rect fill="#F1F1F1" height="34.1328" rx="12.5" ry="12.5" style="stroke:#181818;stroke-width:0.5;" width="200" x="61.5" y="170.1172"/><text fill="#000000" font-family="sans-serif" font-size="12" lengthAdjust="spacing" textLength="180" x="71.5" y="191.7188">クロスマッチ情報を読み取り記録</text><rect fill="#F1F1F1" height="34.1328" rx="12.5" ry="12.5" style="stroke:#181818;stroke-width:0.5;" width="166" x="78.5" y="224.25"/><text fill="#000000" font-family="sans-serif" font-size="12" lengthAdjust="spacing" textLength="146" x="88.5" y="245.8516">Gaiaファイル名一覧を取得</text><rect fill="#F1F1F1" height="34.1328" rx="12.5" ry="12.5" style="stroke:#181818;stroke-width:0.5;" width="154" x="84.5" y="322.3828"/><text fill="#000000" font-family="sans-serif" font-size="12" lengthAdjust="spacing" textLength="134" x="94.5" y="343.9844">Gaiaファイルを読み込み</text><rect fill="#F1F1F1" height="34.1328" rx="12.5" ry="12.5" style="stroke:#181818;stroke-width:0.5;" width="104" x="109.5" y="420.5156"/><text fill="#000000" font-family="sans-serif" font-size="12" lengthAdjust="spacing" textLength="84" x="119.5" y="442.1172">データ読み込み</text><rect fill="#F1F1F1" height="34.1328" rx="12.5" ry="12.5" style="stroke:#181818;stroke-width:0.5;" width="128" x="97.5" y="592.5029"/><text fill="#000000" font-family="sans-serif" font-size="12" lengthAdjust="spacing" textLength="108" x="107.5" y="614.1045">ファイルに書き込み</text><rect fill="#F1F1F1" height="34.1328" rx="12.5" ry="12.5" style="stroke:#181818;stroke-width:0.5;" width="152" x="85.5" y="695.1133"/><text fill="#000000" font-family="sans-serif" font-size="12" lengthAdjust="spacing" textLength="132" x="95.5" y="716.7148">読み込み済みとして記録</text><polygon fill="#F1F1F1" points="82,646.6357,241,646.6357,253,658.6357,241,670.6357,82,670.6357,70,658.6357,82,646.6357" style="stroke:#181818;stroke-width:0.5;"/><text fill="#000000" font-family="sans-serif" font-size="11" lengthAdjust="spacing" textLength="18" x="165.5" y="681.2705">yes</text><text fill="#000000" font-family="sans-serif" font-size="11" lengthAdjust="spacing" textLength="159" x="82" y="662.793">クロスマッチに含まれているか?</text><text fill="#000000" font-family="sans-serif" font-size="11" lengthAdjust="spacing" textLength="14" x="253" y="656.3154">no</text><polygon fill="#F1F1F1" points="161.5,749.2461,173.5,761.2461,161.5,773.2461,149.5,761.2461,161.5,749.2461" style="stroke:#181818;stroke-width:0.5;"/><polygon fill="#F1F1F1" points="117.5,376.5156,205.5,376.5156,217.5,388.5156,205.5,400.5156,117.5,400.5156,105.5,388.5156,117.5,376.5156" style="stroke:#181818;stroke-width:0.5;"/><text fill="#000000" font-family="sans-serif" font-size="11" lengthAdjust="spacing" textLength="88" x="117.5" y="392.6729">全ての行に対して</text><polygon fill="#F1F1F1" points="84.5,278.3828,238.5,278.3828,250.5,290.3828,238.5,302.3828,84.5,302.3828,72.5,290.3828,84.5,278.3828" style="stroke:#181818;stroke-width:0.5;"/><text fill="#000000" font-family="sans-serif" font-size="11" lengthAdjust="spacing" textLength="154" x="84.5" y="294.54">それぞれのファイル名に対して</text><rect fill="#F1F1F1" height="34.1328" rx="12.5" ry="12.5" style="stroke:#181818;stroke-width:0.5;" width="163" x="80" y="837.2461"/><text fill="#000000" font-family="sans-serif" font-size="12" lengthAdjust="spacing" textLength="143" x="90" y="858.8477">Hipparcosデータ読み込み</text><rect fill="#F1F1F1" height="34.1328" rx="12.5" ry="12.5" style="stroke:#181818;stroke-width:0.5;" width="104" x="109.5" y="935.3789"/><text fill="#000000" font-family="sans-serif" font-size="12" lengthAdjust="spacing" textLength="84" x="119.5" y="956.9805">データ読み込み</text><rect fill="#F1F1F1" height="34.1328" rx="12.5" ry="12.5" style="stroke:#181818;stroke-width:0.5;" width="128" x="97.5" y="1101.7109"/><text fill="#000000" font-family="sans-serif" font-size="12" lengthAdjust="spacing" textLength="108" x="107.5" y="1123.3125">ファイルに書き込み</text><polygon fill="#F1F1F1" points="65.5,1053.2334,257.5,1053.2334,269.5,1065.2334,257.5,1077.2334,65.5,1077.2334,53.5,1065.2334,65.5,1053.2334" style="stroke:#181818;stroke-width:0.5;"/><text fill="#000000" font-family="sans-serif" font-size="11" lengthAdjust="spacing" textLength="14" x="165.5" y="1087.8682">no</text><text fill="#000000" font-family="sans-serif" font-size="11" lengthAdjust="spacing" textLength="192" x="65.5" y="1069.3906">読み込み済みとして記録されているか?</text><text fill="#000000" font-family="sans-serif" font-size="11" lengthAdjust="spacing" textLength="18" x="269.5" y="1062.9131">yes</text><polygon fill="#F1F1F1" points="161.5,1155.8438,173.5,1167.8438,161.5,1179.8438,149.5,1167.8438,161.5,1155.8438" style="stroke:#181818;stroke-width:0.5;"/><polygon fill="#F1F1F1" points="117.5,891.3789,205.5,891.3789,217.5,903.3789,205.5,915.3789,117.5,915.3789,105.5,903.3789,117.5,891.3789" style="stroke:#181818;stroke-width:0.5;"/><text fill="#000000" font-family="sans-serif" font-size="11" lengthAdjust="spacing" textLength="88" x="117.5" y="907.5361">全ての行に対して</text><rect fill="#F1F1F1" height="34.1328" rx="12.5" ry="12.5" style="stroke:#181818;stroke-width:0.5;" width="44" x="139.5" y="1221.8438"/><text fill="#000000" font-family="sans-serif" font-size="12" lengthAdjust="spacing" textLength="24" x="149.5" y="1243.4453">終了</text><ellipse cx="161.5" cy="1286.9766" rx="11" ry="11" style="stroke:#222222;stroke-width:1.0;fill:none;"/><ellipse cx="161.5" cy="1286.9766" fill="#222222" rx="6" ry="6" style="stroke:#111111;stroke-width:1.0;"/><line style="stroke:#000000;stroke-width:1.5;" x1="15" x2="15" y1="49.7852" y2="1297.9766"/><rect fill="#F1F1F1" height="34.1328" rx="12.5" ry="12.5" style="stroke:#181818;stroke-width:0.5;" width="114" x="318.5" y="474.6484"/><text fill="#000000" font-family="sans-serif" font-size="12" lengthAdjust="spacing" textLength="94" x="328.5" y="496.25">B-V色指数を計算</text><rect fill="#F1F1F1" height="34.1328" rx="12.5" ry="12.5" style="stroke:#181818;stroke-width:0.5;" width="89" x="331" y="528.7813"/><text fill="#000000" font-family="sans-serif" font-size="12" lengthAdjust="spacing" textLength="69" x="341" y="550.3828">byte[]に変換</text><rect fill="#F1F1F1" height="34.1328" rx="12.5" ry="12.5" style="stroke:#181818;stroke-width:0.5;" width="89" x="331" y="989.5117"/><text fill="#000000" font-family="sans-serif" font-size="12" lengthAdjust="spacing" textLength="69" x="341" y="1011.1133">byte[]に変換</text><line style="stroke:#000000;stroke-width:1.5;" x1="312.5" x2="312.5" y1="49.7852" y2="1297.9766"/><line style="stroke:#000000;stroke-width:1.5;" x1="436.5" x2="436.5" y1="49.7852" y2="1297.9766"/><line style="stroke:#181818;stroke-width:1.0;" x1="161.5" x2="161.5" y1="95.9844" y2="115.9844"/><polygon fill="#181818" points="157.5,105.9844,161.5,115.9844,165.5,105.9844,161.5,109.9844" style="stroke:#181818;stroke-width:1.0;"/><line style="stroke:#181818;stroke-width:1.0;" x1="161.5" x2="161.5" y1="150.1172" y2="170.1172"/><polygon fill="#181818" points="157.5,160.1172,161.5,170.1172,165.5,160.1172,161.5,164.1172" style="stroke:#181818;stroke-width:1.0;"/><line style="stroke:#181818;stroke-width:1.0;" x1="161.5" x2="161.5" y1="204.25" y2="224.25"/><polygon fill="#181818" points="157.5,214.25,161.5,224.25,165.5,214.25,161.5,218.25" style="stroke:#181818;stroke-width:1.0;"/><line style="stroke:#181818;stroke-width:1.0;" x1="161.5" x2="161.5" y1="670.6357" y2="695.1133"/><polygon fill="#181818" points="157.5,685.1133,161.5,695.1133,165.5,685.1133,161.5,689.1133" style="stroke:#181818;stroke-width:1.0;"/><line style="stroke:#181818;stroke-width:1.0;" x1="253" x2="265" y1="658.6357" y2="658.6357"/><polygon fill="#181818" points="261,702.1797,265,712.1797,269,702.1797,265,706.1797" style="stroke:#181818;stroke-width:1.0;"/><line style="stroke:#181818;stroke-width:1.0;" x1="265" x2="265" y1="658.6357" y2="761.2461"/><line style="stroke:#181818;stroke-width:1.0;" x1="265" x2="173.5" y1="761.2461" y2="761.2461"/><polygon fill="#181818" points="183.5,757.2461,173.5,761.2461,183.5,765.2461,179.5,761.2461" style="stroke:#181818;stroke-width:1.0;"/><line style="stroke:#181818;stroke-width:1.0;" x1="161.5" x2="161.5" y1="729.2461" y2="749.2461"/><polygon fill="#181818" points="157.5,739.2461,161.5,749.2461,165.5,739.2461,161.5,743.2461" style="stroke:#181818;stroke-width:1.0;"/><line style="stroke:#181818;stroke-width:1.0;" x1="161.5" x2="161.5" y1="626.6357" y2="646.6357"/><polygon fill="#181818" points="157.5,636.6357,161.5,646.6357,165.5,636.6357,161.5,640.6357" style="stroke:#181818;stroke-width:1.0;"/><line style="stroke:#181818;stroke-width:1.0;" x1="161.5" x2="161.5" y1="400.5156" y2="420.5156"/><polygon fill="#181818" points="157.5,410.5156,161.5,420.5156,165.5,410.5156,161.5,414.5156" style="stroke:#181818;stroke-width:1.0;"/><line style="stroke:#181818;stroke-width:1.0;" x1="161.5" x2="161.5" y1="773.2461" y2="783.2461"/><line style="stroke:#181818;stroke-width:1.0;" x1="161.5" x2="277" y1="783.2461" y2="783.2461"/><polygon fill="#181818" points="273,586.9141,277,576.9141,281,586.9141,277,582.9141" style="stroke:#181818;stroke-width:1.0;"/><line style="stroke:#181818;stroke-width:1.0;" x1="277" x2="277" y1="388.5156" y2="783.2461"/><line style="stroke:#181818;stroke-width:1.0;" x1="277" x2="217.5" y1="388.5156" y2="388.5156"/><polygon fill="#181818" points="227.5,384.5156,217.5,388.5156,227.5,392.5156,223.5,388.5156" style="stroke:#181818;stroke-width:1.0;"/><line style="stroke:#181818;stroke-width:1.0;" x1="105.5" x2="58" y1="388.5156" y2="388.5156"/><polygon fill="#181818" points="54,572.9141,58,582.9141,62,572.9141,58,576.9141" style="stroke:#181818;stroke-width:1.0;"/><line style="stroke:#181818;stroke-width:1.0;" x1="58" x2="58" y1="388.5156" y2="795.2461"/><line style="stroke:#181818;stroke-width:1.0;" x1="58" x2="289" y1="795.2461" y2="795.2461"/><line style="stroke:#181818;stroke-width:1.0;" x1="289" x2="289" y1="290.3828" y2="795.2461"/><line style="stroke:#181818;stroke-width:1.0;" x1="289" x2="250.5" y1="290.3828" y2="290.3828"/><polygon fill="#181818" points="260.5,286.3828,250.5,290.3828,260.5,294.3828,256.5,290.3828" style="stroke:#181818;stroke-width:1.0;"/><line style="stroke:#181818;stroke-width:1.0;" x1="161.5" x2="161.5" y1="356.5156" y2="376.5156"/><polygon fill="#181818" points="157.5,366.5156,161.5,376.5156,165.5,366.5156,161.5,370.5156" style="stroke:#181818;stroke-width:1.0;"/><line style="stroke:#181818;stroke-width:1.0;" x1="161.5" x2="161.5" y1="302.3828" y2="322.3828"/><polygon fill="#181818" points="157.5,312.3828,161.5,322.3828,165.5,312.3828,161.5,316.3828" style="stroke:#181818;stroke-width:1.0;"/><line style="stroke:#181818;stroke-width:1.0;" x1="72.5" x2="34" y1="290.3828" y2="290.3828"/><polygon fill="#181818" points="30,531.7588,34,541.7588,38,531.7588,34,535.7588" style="stroke:#181818;stroke-width:1.0;"/><line style="stroke:#181818;stroke-width:1.0;" x1="34" x2="34" y1="290.3828" y2="817.2461"/><line style="stroke:#181818;stroke-width:1.0;" x1="34" x2="161.5" y1="817.2461" y2="817.2461"/><line style="stroke:#181818;stroke-width:1.0;" x1="161.5" x2="161.5" y1="817.2461" y2="837.2461"/><polygon fill="#181818" points="157.5,827.2461,161.5,837.2461,165.5,827.2461,161.5,831.2461" style="stroke:#181818;stroke-width:1.0;"/><line style="stroke:#181818;stroke-width:1.0;" x1="161.5" x2="161.5" y1="258.3828" y2="278.3828"/><polygon fill="#181818" points="157.5,268.3828,161.5,278.3828,165.5,268.3828,161.5,272.3828" style="stroke:#181818;stroke-width:1.0;"/><line style="stroke:#181818;stroke-width:1.0;" x1="161.5" x2="161.5" y1="1077.2334" y2="1101.7109"/><polygon fill="#181818" points="157.5,1091.7109,161.5,1101.7109,165.5,1091.7109,161.5,1095.7109" style="stroke:#181818;stroke-width:1.0;"/><line style="stroke:#181818;stroke-width:1.0;" x1="269.5" x2="281.5" y1="1065.2334" y2="1065.2334"/><polygon fill="#181818" points="277.5,1108.7773,281.5,1118.7773,285.5,1108.7773,281.5,1112.7773" style="stroke:#181818;stroke-width:1.0;"/><line style="stroke:#181818;stroke-width:1.0;" x1="281.5" x2="281.5" y1="1065.2334" y2="1167.8438"/><line style="stroke:#181818;stroke-width:1.0;" x1="281.5" x2="173.5" y1="1167.8438" y2="1167.8438"/><polygon fill="#181818" points="183.5,1163.8438,173.5,1167.8438,183.5,1171.8438,179.5,1167.8438" style="stroke:#181818;stroke-width:1.0;"/><line style="stroke:#181818;stroke-width:1.0;" x1="161.5" x2="161.5" y1="1135.8438" y2="1155.8438"/><polygon fill="#181818" points="157.5,1145.8438,161.5,1155.8438,165.5,1145.8438,161.5,1149.8438" style="stroke:#181818;stroke-width:1.0;"/><line style="stroke:#181818;stroke-width:1.0;" x1="161.5" x2="161.5" y1="915.3789" y2="935.3789"/><polygon fill="#181818" points="157.5,925.3789,161.5,935.3789,165.5,925.3789,161.5,929.3789" style="stroke:#181818;stroke-width:1.0;"/><line style="stroke:#181818;stroke-width:1.0;" x1="161.5" x2="161.5" y1="1179.8438" y2="1189.8438"/><line style="stroke:#181818;stroke-width:1.0;" x1="161.5" x2="293.5" y1="1189.8438" y2="1189.8438"/><polygon fill="#181818" points="289.5,1047.6445,293.5,1037.6445,297.5,1047.6445,293.5,1043.6445" style="stroke:#181818;stroke-width:1.0;"/><line style="stroke:#181818;stroke-width:1.0;" x1="293.5" x2="293.5" y1="903.3789" y2="1189.8438"/><line style="stroke:#181818;stroke-width:1.0;" x1="293.5" x2="217.5" y1="903.3789" y2="903.3789"/><polygon fill="#181818" points="227.5,899.3789,217.5,903.3789,227.5,907.3789,223.5,903.3789" style="stroke:#181818;stroke-width:1.0;"/><line style="stroke:#181818;stroke-width:1.0;" x1="105.5" x2="41.5" y1="903.3789" y2="903.3789"/><polygon fill="#181818" points="37.5,1033.6445,41.5,1043.6445,45.5,1033.6445,41.5,1037.6445" style="stroke:#181818;stroke-width:1.0;"/><line style="stroke:#181818;stroke-width:1.0;" x1="41.5" x2="41.5" y1="903.3789" y2="1201.8438"/><line style="stroke:#181818;stroke-width:1.0;" x1="41.5" x2="161.5" y1="1201.8438" y2="1201.8438"/><line style="stroke:#181818;stroke-width:1.0;" x1="161.5" x2="161.5" y1="1201.8438" y2="1221.8438"/><polygon fill="#181818" points="157.5,1211.8438,161.5,1221.8438,165.5,1211.8438,161.5,1215.8438" style="stroke:#181818;stroke-width:1.0;"/><line style="stroke:#181818;stroke-width:1.0;" x1="161.5" x2="161.5" y1="871.3789" y2="891.3789"/><polygon fill="#181818" points="157.5,881.3789,161.5,891.3789,165.5,881.3789,161.5,885.3789" style="stroke:#181818;stroke-width:1.0;"/><line style="stroke:#181818;stroke-width:1.0;" x1="161.5" x2="161.5" y1="1255.9766" y2="1275.9766"/><polygon fill="#181818" points="157.5,1265.9766,161.5,1275.9766,165.5,1265.9766,161.5,1269.9766" style="stroke:#181818;stroke-width:1.0;"/><line style="stroke:#181818;stroke-width:1.0;" x1="375.5" x2="375.5" y1="508.7813" y2="528.7813"/><polygon fill="#181818" points="371.5,518.7813,375.5,528.7813,379.5,518.7813,375.5,522.7813" style="stroke:#181818;stroke-width:1.0;"/><line style="stroke:#181818;stroke-width:1.0;" x1="161.5" x2="161.5" y1="454.6484" y2="459.6484"/><line style="stroke:#181818;stroke-width:1.0;" x1="161.5" x2="375.5" y1="459.6484" y2="459.6484"/><line style="stroke:#181818;stroke-width:1.0;" x1="375.5" x2="375.5" y1="459.6484" y2="474.6484"/><polygon fill="#181818" points="371.5,464.6484,375.5,474.6484,379.5,464.6484,375.5,468.6484" style="stroke:#181818;stroke-width:1.0;"/><line style="stroke:#181818;stroke-width:1.0;" x1="375.5" x2="375.5" y1="562.9141" y2="575.0029"/><line style="stroke:#181818;stroke-width:1.0;" x1="375.5" x2="161.5" y1="575.0029" y2="575.0029"/><line style="stroke:#181818;stroke-width:1.0;" x1="161.5" x2="161.5" y1="575.0029" y2="592.5029"/><polygon fill="#181818" points="157.5,582.5029,161.5,592.5029,165.5,582.5029,161.5,586.5029" style="stroke:#181818;stroke-width:1.0;"/><line style="stroke:#181818;stroke-width:1.0;" x1="161.5" x2="161.5" y1="969.5117" y2="974.5117"/><line style="stroke:#181818;stroke-width:1.0;" x1="161.5" x2="375.5" y1="974.5117" y2="974.5117"/><line style="stroke:#181818;stroke-width:1.0;" x1="375.5" x2="375.5" y1="974.5117" y2="989.5117"/><polygon fill="#181818" points="371.5,979.5117,375.5,989.5117,379.5,979.5117,375.5,983.5117" style="stroke:#181818;stroke-width:1.0;"/><line style="stroke:#181818;stroke-width:1.0;" x1="375.5" x2="375.5" y1="1023.6445" y2="1035.7334"/><line style="stroke:#181818;stroke-width:1.0;" x1="375.5" x2="161.5" y1="1035.7334" y2="1035.7334"/><line style="stroke:#181818;stroke-width:1.0;" x1="161.5" x2="161.5" y1="1035.7334" y2="1053.2334"/><polygon fill="#181818" points="157.5,1043.2334,161.5,1053.2334,165.5,1043.2334,161.5,1047.2334" style="stroke:#181818;stroke-width:1.0;"/><text fill="#000000" font-family="sans-serif" font-size="18" lengthAdjust="spacing" textLength="119" x="104.25" y="67.1875">DataExtractor</text><text fill="#000000" font-family="sans-serif" font-size="18" lengthAdjust="spacing" textLength="74" x="337.5" y="67.1875">StarData</text><!--MD5=[21d604196a2d79f28999ff25a263b107]
@startuml DataExtractor_Activity.svg
title DataExtractor(アクティビティ図)
|DataExtractor|
start
:開始;
:クロスマッチ情報を読み取り記録;
:Gaiaファイル名一覧を取得;
|DataExtractor|
while (それぞれのファイル名に対して)
    :Gaiaファイルを読み込み;
    while (全ての行に対して)
        :データ読み込み;
        |StarData|
        :B-V色指数を計算;
        :byte[]に変換;
        |DataExtractor|
        :ファイルに書き込み;
        if (クロスマッチに含まれているか?) then (yes)
            :読み込み済みとして記録;
        else (no)
        endif
    endwhile
endwhile
:Hipparcosデータ読み込み;
while (全ての行に対して)
    :データ読み込み;
    |StarData|
    :byte[]に変換;
    |DataExtractor|
    if (読み込み済みとして記録されているか?) then (no)
        :ファイルに書き込み;
    else (yes)
    endif
endwhile
:終了;
stop

@enduml

PlantUML version 1.2022.2(Sun Mar 06 01:30:19 JST 2022)
(GPL source distribution)
Java Runtime: OpenJDK Runtime Environment
JVM: OpenJDK 64-Bit Server VM
Default Encoding: UTF-8
Language: ja
Country: JP
--></g></svg>