<?xml version="1.0" encoding="UTF-8" standalone="no"?><svg xmlns="http://www.w3.org/2000/svg" xmlns:xlink="http://www.w3.org/1999/xlink" contentStyleType="text/css" height="248px" preserveAspectRatio="none" style="width:908px;height:248px;background:#FFFFFF;" version="1.1" viewBox="0 0 908 248" width="908px" zoomAndPan="magnify"><defs/><g><rect height="26.4883" style="stroke:#00000000;stroke-width:1.0;fill:none;" width="107" x="393.5" y="5"/><text fill="#000000" font-family="sans-serif" font-size="14" font-weight="bold" lengthAdjust="spacing" textLength="97" x="398.5" y="23.5352">DataExtractor</text><!--MD5=[871205cb631ec30aa8c52dfb4d844a93]
cluster DataExtractor--><g id="cluster_DataExtractor"><path d="M8.5,43.4883 L106.5,43.4883 A3.75,3.75 0 0 1 109,45.9883 L116,65.9766 L898.5,65.9766 A2.5,2.5 0 0 1 901,68.4766 L901,238.9883 A2.5,2.5 0 0 1 898.5,241.4883 L8.5,241.4883 A2.5,2.5 0 0 1 6,238.9883 L6,45.9883 A2.5,2.5 0 0 1 8.5,43.4883 " style="stroke:#000000;stroke-width:1.5;fill:none;"/><line style="stroke:#000000;stroke-width:1.5;fill:none;" x1="6" x2="116" y1="65.9766" y2="65.9766"/><text fill="#000000" font-family="sans-serif" font-size="14" font-weight="bold" lengthAdjust="spacing" textLength="97" x="10" y="59.0234">DataExtractor</text></g><!--MD5=[702f5ecae91e7ab5cbe7cfad195cbb2a]
class DataExtractor.DataExtractor--><g id="elem_DataExtractor.DataExtractor"><rect codeLine="3" fill="#F1F1F1" height="146.9297" id="DataExtractor.DataExtractor" rx="2.5" ry="2.5" style="stroke:#181818;stroke-width:0.5;" width="262" x="623" y="78.4883"/><ellipse cx="702.75" cy="94.4883" fill="#ADD1B2" rx="11" ry="11" style="stroke:#181818;stroke-width:1.0;"/><path d="M705.2231,100.6313 Q704.6421,100.9302 704.0029,101.0796 Q703.3638,101.229 702.6582,101.229 Q700.1514,101.229 698.8315,99.5771 Q697.5117,97.9253 697.5117,94.8042 Q697.5117,91.6748 698.8315,90.0229 Q700.1514,88.3711 702.6582,88.3711 Q703.3638,88.3711 704.0112,88.5205 Q704.6587,88.6699 705.2231,88.9688 L705.2231,91.6914 Q704.5923,91.1104 703.9988,90.8406 Q703.4053,90.5708 702.7744,90.5708 Q701.4297,90.5708 700.7449,91.6375 Q700.0601,92.7041 700.0601,94.8042 Q700.0601,96.896 700.7449,97.9626 Q701.4297,99.0293 702.7744,99.0293 Q703.4053,99.0293 703.9988,98.7595 Q704.5923,98.4897 705.2231,97.9087 Z " fill="#000000"/><text fill="#000000" font-family="sans-serif" font-size="14" lengthAdjust="spacing" textLength="94" x="723.25" y="99.7793">DataExtractor</text><line style="stroke:#181818;stroke-width:0.5;" x1="624" x2="884" y1="110.4883" y2="110.4883"/><text fill="#000000" font-family="sans-serif" font-size="14" lengthAdjust="spacing" textLength="97" x="629" y="128.0234">OutFile: string</text><text fill="#000000" font-family="sans-serif" font-size="14" lengthAdjust="spacing" textLength="108" x="629" y="144.5117">GaiaPath: string</text><text fill="#000000" font-family="sans-serif" font-size="14" lengthAdjust="spacing" textLength="101" x="629" y="161">HipPath: string</text><text fill="#000000" font-family="sans-serif" font-size="14" lengthAdjust="spacing" textLength="158" x="629" y="177.4883">CrossMatchPath: string</text><line style="stroke:#181818;stroke-width:0.5;" x1="624" x2="884" y1="184.4414" y2="184.4414"/><text fill="#000000" font-family="sans-serif" font-size="14" lengthAdjust="spacing" textLength="80" x="629" y="201.9766">Main(): void</text><text fill="#000000" font-family="sans-serif" font-size="14" lengthAdjust="spacing" textLength="250" x="629" y="218.4648">GetGaiaFiles(): IEnumerable&lt;string&gt;</text></g><!--MD5=[2f333648af7417f8e2cc8b5aa8b0c5c4]
class DataExtractor.StarData--><g id="elem_DataExtractor.StarData"><rect codeLine="12" fill="#F1F1F1" height="146.9297" id="DataExtractor.StarData" rx="2.5" ry="2.5" style="stroke:#181818;stroke-width:0.5;" width="565" x="22.5" y="78.4883"/><ellipse cx="271.75" cy="94.4883" fill="#ADD1B2" rx="11" ry="11" style="stroke:#181818;stroke-width:1.0;"/><path d="M274.2231,100.6313 Q273.6421,100.9302 273.0029,101.0796 Q272.3638,101.229 271.6582,101.229 Q269.1514,101.229 267.8315,99.5771 Q266.5117,97.9253 266.5117,94.8042 Q266.5117,91.6748 267.8315,90.0229 Q269.1514,88.3711 271.6582,88.3711 Q272.3638,88.3711 273.0112,88.5205 Q273.6587,88.6699 274.2231,88.9688 L274.2231,91.6914 Q273.5923,91.1104 272.9988,90.8406 Q272.4053,90.5708 271.7744,90.5708 Q270.4297,90.5708 269.7449,91.6375 Q269.0601,92.7041 269.0601,94.8042 Q269.0601,96.896 269.7449,97.9626 Q270.4297,99.0293 271.7744,99.0293 Q272.4053,99.0293 272.9988,98.7595 Q273.5923,98.4897 274.2231,97.9087 Z " fill="#000000"/><text fill="#000000" font-family="sans-serif" font-size="14" lengthAdjust="spacing" textLength="58" x="292.25" y="99.7793">StarData</text><line style="stroke:#181818;stroke-width:0.5;" x1="23.5" x2="586.5" y1="110.4883" y2="110.4883"/><text fill="#000000" font-family="sans-serif" font-size="14" lengthAdjust="spacing" textLength="77" x="28.5" y="128.0234">_ra: double</text><text fill="#000000" font-family="sans-serif" font-size="14" lengthAdjust="spacing" textLength="87" x="28.5" y="144.5117">_dec: double</text><text fill="#000000" font-family="sans-serif" font-size="14" lengthAdjust="spacing" textLength="82" x="28.5" y="161">_vMag: float</text><text fill="#000000" font-family="sans-serif" font-size="14" lengthAdjust="spacing" textLength="100" x="28.5" y="177.4883">_bvColor: float</text><line style="stroke:#181818;stroke-width:0.5;" x1="23.5" x2="586.5" y1="184.4414" y2="184.4414"/><text fill="#000000" font-family="sans-serif" font-size="14" lengthAdjust="spacing" textLength="553" x="28.5" y="201.9766">FromGaiaProperty(ra: double, dec: double , g: float , bp: float , rp: float): StarData</text><text fill="#000000" font-family="sans-serif" font-size="14" lengthAdjust="spacing" textLength="103" x="28.5" y="218.4648">ToByte(): byte[]</text></g><!--MD5=[c736fa49a41a0b7b1ab4a22879844531]
@startuml DataExtractor.svg
title DataExtractor
namespace DataExtractor {
    class DataExtractor {
        OutFile: string
        GaiaPath: string
        HipPath: string
        CrossMatchPath: string

        Main(): void
        GetGaiaFiles(): IEnumerable<string>
    }
    class StarData {
        _ra: double
        _dec: double
        _vMag: float
        _bvColor: float

        FromGaiaProperty(ra: double, dec: double , g: float , bp: float , rp: float): StarData
        ToByte(): byte[]
    }
}
@enduml

PlantUML version 1.2022.2(Sun Mar 06 01:30:19 JST 2022)
(GPL source distribution)
Java Runtime: OpenJDK Runtime Environment
JVM: OpenJDK 64-Bit Server VM
Default Encoding: UTF-8
Language: ja
Country: JP
--></g></svg>